# xmcd
#
# Track frame offsets: 
#        150
#        16500
#        38505
#        54870
#        72896
#        87628
#        98787
#        114871
#        130705
#        144416
#        161559
#
# Disc length: 2453 seconds
#
# Revision: 0
# Processed by: cddbd v1.5.2PL0 Copyright (c) Steve Scherf et al.
# Submitted via: ExactAudioCopy v0.95b4
#
DISCID=7c09930b
DTITLE=The Schramms - 2000 Weiss Beers From Home "Alte Mälzerei" (Disc
DTITLE=1)
DYEAR=2000
DGENRE=Folk
TTITLE0=Home
TTITLE1=She Says
TTITLE2=Three Trips To Heaven
TTITLE3=Simple Arithmetic
TTITLE4=Dizzy Spell
TTITLE5=Deny You
TTITLE6=I`ll Belive
TTITLE7=Number Nineteen
TTITLE8=Out Of The Eatth
TTITLE9=Seven Horses
TTITLE10=Wild Innocence
EXTD=
EXTT0=
EXTT1=
EXTT2=
EXTT3=
EXTT4=
EXTT5=
EXTT6=
EXTT7=
EXTT8=
EXTT9=
EXTT10=
PLAYORDER=
